HIERARCHY
ROOT Hips
{
	OFFSET -0.001795 -0.223333 0.028219
	CHANNELS 6 Xposition Yposition Zposition Zrotation Yrotation Xrotation 
	JOINT LeftUpLeg
	{
		OFFSET 0.069520 -0.091406 -0.006815
		CHANNELS 3 Zrotation Yrotation Xrotation
		JOINT LeftLeg
		{
			OFFSET 0.034277 -0.375199 -0.004496
			CHANNELS 3 Zrotation Yrotation Xrotation
			JOINT LeftFoot
			{
				OFFSET -0.013596 -0.397961 -0.043693
				CHANNELS 3 Zrotation Yrotation Xrotation
				JOINT LeftToe
				{
					OFFSET 0.026358 -0.055791 0.119288
					CHANNELS 3 Zrotation Yrotation Xrotation
					End Site
					{
						OFFSET 0.000000 0.000000 0.000000
					}
				}
			}
		}
	}
	JOINT RightUpLeg
	{
		OFFSET -0.067670 -0.090522 -0.004320
		CHANNELS 3 Zrotation Yrotation Xrotation
		JOINT RightLeg
		{
			OFFSET -0.038290 -0.382569 -0.008850
			CHANNELS 3 Zrotation Yrotation Xrotation
			JOINT RightFoot
			{
				OFFSET 0.015774 -0.398415 -0.042312
				CHANNELS 3 Zrotation Yrotation Xrotation
				JOINT RightToe
				{
					OFFSET -0.025372 -0.048144 0.123348
					CHANNELS 3 Zrotation Yrotation Xrotation
					End Site
					{
						OFFSET 0.000000 0.000000 0.000000
					}
				}
			}
		}
	}
	JOINT Spine
	{
		OFFSET -0.002533 0.108963 -0.026696
		CHANNELS 3 Zrotation Yrotation Xrotation
		JOINT Spine1
		{
			OFFSET 0.005487 0.135180 0.001092
			CHANNELS 3 Zrotation Yrotation Xrotation
			JOINT Spine2
			{
				OFFSET 0.001457 0.052922 0.025425
				CHANNELS 3 Zrotation Yrotation Xrotation
				JOINT Neck
				{
					OFFSET -0.002778 0.213870 -0.042857
					CHANNELS 3 Zrotation Yrotation Xrotation
					JOINT Head
					{
						OFFSET 0.005152 0.064970 0.051349
						CHANNELS 3 Zrotation Yrotation Xrotation
						End Site
						{
							OFFSET 0.000000 0.000000 0.000000
						}
					}
				}
				JOINT LeftShoulder
				{
					OFFSET 0.078845 0.121749 -0.034090
					CHANNELS 3 Zrotation Yrotation Xrotation
					JOINT LeftArm
					{
						OFFSET 0.090977 0.030469 -0.008868
						CHANNELS 3 Zrotation Yrotation Xrotation
						JOINT LeftForeArm
						{
							OFFSET 0.259612 -0.012772 -0.027456
							CHANNELS 3 Zrotation Yrotation Xrotation
							JOINT LeftHand
							{
								OFFSET 0.249234 0.008986 -0.001171
								CHANNELS 3 Zrotation Yrotation Xrotation
								End Site
								{
									OFFSET 0.000000 0.000000 0.000000
								}
							}
						}
					}
				}
				JOINT RightShoulder
				{
					OFFSET -0.081759 0.118833 -0.038615
					CHANNELS 3 Zrotation Yrotation Xrotation
					JOINT RightArm
					{
						OFFSET -0.096012 0.032551 -0.009143
						CHANNELS 3 Zrotation Yrotation Xrotation
						JOINT RightForeArm
						{
							OFFSET -0.253742 -0.013329 -0.021401
							CHANNELS 3 Zrotation Yrotation Xrotation
							JOINT RightHand
							{
								OFFSET -0.255298 0.007772 -0.005559
								CHANNELS 3 Zrotation Yrotation Xrotation
								End Site
								{
									OFFSET 0.000000 0.000000 0.000000
								}
							}
						}
					}
				}
			}
		}
	}
}
MOTION
Frames: 6
Frame Time: 0.050000
0.124286 0.981614 0.169031 0.087097 6.792675 -8.282243 -1.008139 0.828442 9.548440 1.163191 -0.335626 4.356922 -3.528239 -0.591709 11.438148 0.000000 0.000000 0.000000 -4.337868 -0.058534 -0.282904 0.235695 0.462922 22.599072 -3.604331 -10.850191 9.922073 0.000000 0.000000 0.000000 0.679980 -0.487440 9.744922 0.085610 0.094033 -2.438222 -0.651129 -8.213307 6.069572 -8.300317 5.494607 -22.744827 0.000000 0.000000 0.000000 -6.614865 8.197286 -3.605067 -58.063571 5.724130 -9.567487 -22.497142 -34.360668 9.082045 0.000000 0.000000 0.000000 -0.843622 -5.646571 -1.661917 64.171423 -6.553934 -11.078454 48.650605 60.092052 29.910391 0.000000 0.000000 0.000000 
0.116003 1.000005 0.171112 -0.257257 6.881715 -6.824297 -0.512630 0.777706 9.408714 1.782411 -0.238617 1.097265 -4.582398 0.127614 16.485634 0.000000 0.000000 0.000000 -3.081893 -0.134268 1.177815 0.267688 0.373763 16.833979 -3.570090 -11.238380 13.529656 0.000000 0.000000 0.000000 0.966775 -0.409765 8.051346 0.667027 -0.215300 -1.756304 -0.556446 -8.908683 4.981954 -8.881143 5.758024 -21.710788 0.000000 0.000000 0.000000 -6.268520 7.075768 -3.088129 -58.747452 7.814383 -10.492075 -24.343135 -34.564937 9.799646 0.000000 0.000000 0.000000 -1.656752 -5.994801 -1.601204 65.471471 -7.748835 -12.082681 55.907212 61.478321 35.295028 0.000000 0.000000 0.000000 
0.106347 1.009406 0.172465 -0.426386 6.830760 -6.273243 0.287131 0.665089 8.781904 2.111222 -0.253286 0.705191 -4.829771 0.354711 17.827770 0.000000 0.000000 0.000000 -1.724654 -0.289534 2.917563 -0.423176 0.472234 12.817472 -3.149874 -10.637043 14.809115 0.000000 0.000000 0.000000 0.580189 -0.337599 7.080992 0.907984 -0.361853 -1.214282 -0.211174 -9.234255 4.731022 -9.024868 5.781353 -21.731980 0.000000 0.000000 0.000000 -4.735528 6.495150 -2.697585 -60.029657 9.236705 -11.272172 -25.435441 -34.511484 10.187127 0.000000 0.000000 0.000000 -2.524044 -6.029432 -1.424493 66.474391 -8.779613 -13.025993 61.804359 62.438823 39.970446 0.000000 0.000000 0.000000 
0.096174 1.000097 0.172627 -0.475506 6.463009 -6.777432 1.345869 0.520360 7.762200 1.865399 -0.443408 4.511669 -4.093069 -0.538922 13.516404 0.000000 0.000000 0.000000 -0.967525 -0.407296 3.959257 -0.416192 0.451320 11.752325 -3.786498 -11.508470 12.037124 0.000000 0.000000 0.000000 0.498170 -0.372030 7.828536 0.710675 -0.273679 -1.130448 -0.302910 -8.948201 5.557000 -9.482205 5.997939 -23.012039 0.000000 0.000000 0.000000 -4.394218 6.648853 -2.726501 -59.853397 8.888152 -11.145771 -25.944395 -35.290189 10.635154 0.000000 0.000000 0.000000 -1.625420 -5.580564 -1.472340 66.343427 -8.600381 -12.903333 63.664747 63.696035 42.424251 0.000000 0.000000 0.000000 
0.086696 0.976449 0.170306 -0.550972 6.199892 -8.112918 2.976940 0.299101 5.532004 1.100705 -0.809585 12.550742 -1.941206 -0.579073 6.041198 0.000000 0.000000 0.000000 -0.519219 -0.542445 5.110091 0.038767 0.383225 12.996511 -4.666799 -12.709623 6.574720 0.000000 0.000000 0.000000 0.274429 -0.490286 10.290648 0.583418 -0.210068 -1.184801 -0.303437 -8.191230 6.474909 -9.515351 5.992667 -25.405535 0.000000 0.000000 0.000000 -5.021955 7.194604 -3.010790 -58.713382 7.424427 -10.437116 -24.199987 -38.022973 10.856489 0.000000 0.000000 0.000000 0.017182 -4.353414 -1.396398 64.888745 -7.637126 -11.912284 59.145589 65.115435 40.484689 0.000000 0.000000 0.000000 
0.080432 0.954964 0.165917 -0.805874 5.677036 -8.999235 3.998765 0.131007 2.696638 1.071026 -1.318141 19.961822 -0.626040 -0.572949 1.325045 0.000000 0.000000 0.000000 -0.230117 -0.438828 4.082329 1.281602 0.132542 16.267094 -5.497605 -14.089786 1.232932 0.000000 0.000000 0.000000 0.348207 -0.613554 12.489040 0.234382 -0.100905 0.030307 0.131291 -7.261861 5.922776 -9.431157 5.945983 -26.871119 0.000000 0.000000 0.000000 -6.437030 7.911155 -3.471265 -56.637647 5.405100 -9.208993 -24.115348 -41.837320 11.944443 0.000000 0.000000 0.000000 2.748718 -3.880000 -1.712903 61.677655 -6.723963 -10.467132 49.506432 64.628775 33.291676 0.000000 0.000000 0.000000 
